<svg width="352" height="377" viewBox="0 0 352 377" fill="none" xmlns="http://www.w3.org/2000/svg">
<rect width="351.844" height="376.765" fill="#D4E8E3"/>
<path d="M224.539 170.739V128.231C224.539 112.681 211.881 100 196.308 100H100V150.815V276.765H251.844V230.925C251.844 206.976 241.269 185.455 224.539 170.762V170.739ZM116.198 116.198H196.331C202.949 116.198 208.364 121.589 208.364 128.231V159.701C197.396 154.032 184.946 150.815 171.757 150.815H116.198V116.198ZM116.198 260.567V237.728H163.704C164.352 237.728 164.861 238.237 164.861 238.885V260.567H116.198ZM181.082 260.567V231.157C181.082 225.835 176.755 221.507 171.433 221.507H116.198V202.417H171.595C187.399 202.417 200.265 215.283 200.265 231.087V260.544H181.082V260.567ZM235.646 260.567H216.463V231.11C216.463 206.374 196.331 186.242 171.595 186.242H116.198V167.013H171.757C206.999 167.013 235.669 195.683 235.669 230.925V260.567H235.646Z" fill="#F44029"/>
</svg>
